<svg width="26" height="22" viewBox="0 0 26 22" fill="none" xmlns="http://www.w3.org/2000/svg" xmlns:xlink="http://www.w3.org/1999/xlink">
<path d="M5.124 13.324C5.228 13.324 5.308 13.372 5.364 13.468C5.428 13.564 5.46 13.696 5.46 13.864C5.46 14.184 5.384 14.432 5.232 14.608C4.888 15.032 4.512 15.38 4.104 15.652C3.704 15.924 3.248 16.06 2.736 16.06C2.032 16.06 1.508 15.74 1.164 15.1C0.828 14.46 0.66 13.632 0.66 12.616C0.66 11.64 0.784 10.528 1.032 9.28C1.288 8.032 1.66 6.96 2.148 6.064C2.644 5.168 3.232 4.72 3.912 4.72C4.296 4.72 4.596 4.9 4.812 5.26C5.036 5.612 5.148 6.12 5.148 6.784C5.148 7.736 4.884 8.84 4.356 10.096C3.828 11.352 3.112 12.596 2.208 13.828C2.264 14.156 2.356 14.392 2.484 14.536C2.612 14.672 2.78 14.74 2.988 14.74C3.316 14.74 3.604 14.648 3.852 14.464C4.1 14.272 4.416 13.948 4.8 13.492C4.896 13.38 5.004 13.324 5.124 13.324ZM3.648 5.908C3.464 5.908 3.256 6.24 3.024 6.904C2.792 7.568 2.588 8.392 2.412 9.376C2.236 10.36 2.14 11.304 2.124 12.208C2.692 11.272 3.144 10.336 3.48 9.4C3.816 8.456 3.984 7.596 3.984 6.82C3.984 6.212 3.872 5.908 3.648 5.908ZM10.6101 12.316C10.7141 12.316 10.7941 12.368 10.8501 12.472C10.9061 12.576 10.9341 12.708 10.9341 12.868C10.9341 13.252 10.8181 13.48 10.5861 13.552C10.1061 13.72 9.57806 13.816 9.00206 13.84C8.85006 14.512 8.55006 15.052 8.10206 15.46C7.65406 15.86 7.14606 16.06 6.57806 16.06C6.09806 16.06 5.68606 15.944 5.34206 15.712C5.00606 15.48 4.75006 15.172 4.57406 14.788C4.39806 14.404 4.31006 13.988 4.31006 13.54C4.31006 12.932 4.42606 12.392 4.65806 11.92C4.89006 11.44 5.21006 11.068 5.61806 10.804C6.02606 10.532 6.47806 10.396 6.97406 10.396C7.58206 10.396 8.07006 10.608 8.43806 11.032C8.81406 11.448 9.03406 11.964 9.09806 12.58C9.47406 12.556 9.92206 12.476 10.4421 12.34C10.5061 12.324 10.5621 12.316 10.6101 12.316ZM6.67406 14.788C6.93006 14.788 7.15006 14.684 7.33406 14.476C7.52606 14.268 7.65406 13.968 7.71806 13.576C7.47006 13.408 7.27806 13.188 7.14206 12.916C7.01406 12.644 6.95006 12.356 6.95006 12.052C6.95006 11.924 6.96206 11.796 6.98606 11.668H6.92606C6.60606 11.668 6.33806 11.824 6.12206 12.136C5.91406 12.44 5.81006 12.872 5.81006 13.432C5.81006 13.872 5.89406 14.208 6.06206 14.44C6.23806 14.672 6.44206 14.788 6.67406 14.788ZM16.0241 12.316C16.1281 12.316 16.2081 12.368 16.2641 12.472C16.3201 12.576 16.3481 12.708 16.3481 12.868C16.3481 13.252 16.2321 13.48 16.0001 13.552C15.5201 13.72 14.9921 13.816 14.4161 13.84C14.2641 14.512 13.9641 15.052 13.5161 15.46C13.0681 15.86 12.5601 16.06 11.9921 16.06C11.5121 16.06 11.1001 15.944 10.7561 15.712C10.4201 15.48 10.1641 15.172 9.98813 14.788C9.81213 14.404 9.72412 13.988 9.72412 13.54C9.72412 12.932 9.84013 12.392 10.0721 11.92C10.3041 11.44 10.6241 11.068 11.0321 10.804C11.4401 10.532 11.8921 10.396 12.3881 10.396C12.9961 10.396 13.4841 10.608 13.8521 11.032C14.2281 11.448 14.4481 11.964 14.5121 12.58C14.8881 12.556 15.3361 12.476 15.8561 12.34C15.9201 12.324 15.9761 12.316 16.0241 12.316ZM12.0881 14.788C12.3441 14.788 12.5641 14.684 12.7481 14.476C12.9401 14.268 13.0681 13.968 13.1321 13.576C12.8841 13.408 12.6921 13.188 12.5561 12.916C12.4281 12.644 12.3641 12.356 12.3641 12.052C12.3641 11.924 12.3761 11.796 12.4001 11.668H12.3401C12.0201 11.668 11.7521 11.824 11.5361 12.136C11.3281 12.44 11.2241 12.872 11.2241 13.432C11.2241 13.872 11.3081 14.208 11.4761 14.44C11.6521 14.672 11.8561 14.788 12.0881 14.788ZM21.7262 13.324C21.8302 13.324 21.9102 13.372 21.9662 13.468C22.0302 13.564 22.0622 13.696 22.0622 13.864C22.0622 14.184 21.9862 14.432 21.8342 14.608C21.4902 15.032 21.1182 15.38 20.7182 15.652C20.3262 15.924 19.8782 16.06 19.3742 16.06C18.9502 16.06 18.6062 15.908 18.3422 15.604C17.8862 15.9 17.4102 16.052 16.9142 16.06C16.8102 17.604 16.5742 18.892 16.2062 19.924C15.8382 20.964 15.2982 21.484 14.5862 21.484C14.1542 21.484 13.8342 21.328 13.6262 21.016C13.4182 20.704 13.3142 20.272 13.3142 19.72C13.3142 18.936 13.4942 18.02 13.8542 16.972C14.2142 15.932 14.7702 14.784 15.5222 13.528C15.5222 12.36 15.5142 11.548 15.4982 11.092C15.4902 10.86 15.5822 10.676 15.7742 10.54C15.9662 10.404 16.2062 10.336 16.4942 10.336C16.6622 10.336 16.7822 10.372 16.8542 10.444C16.9342 10.508 16.9782 10.64 16.9862 10.84C16.9862 11.04 16.9902 11.188 16.9982 11.284C17.2542 10.964 17.5062 10.736 17.7542 10.6C18.0022 10.456 18.2662 10.384 18.5462 10.384C18.9942 10.384 19.3582 10.564 19.6382 10.924C19.9262 11.284 20.0702 11.756 20.0702 12.34C20.0702 12.764 20.0022 13.176 19.8662 13.576C19.7302 13.976 19.5422 14.34 19.3022 14.668C19.4702 14.716 19.6102 14.74 19.7222 14.74C19.9862 14.74 20.2382 14.644 20.4782 14.452C20.7182 14.26 21.0262 13.94 21.4022 13.492C21.4982 13.38 21.6062 13.324 21.7262 13.324ZM16.9742 14.908C17.2622 14.844 17.5262 14.688 17.7662 14.44C18.0142 14.184 18.2102 13.872 18.3542 13.504C18.4982 13.128 18.5702 12.736 18.5702 12.328C18.5702 12.088 18.5222 11.908 18.4262 11.788C18.3302 11.66 18.2022 11.596 18.0422 11.596C17.7542 11.596 17.4062 11.9 16.9982 12.508C16.9902 12.86 16.9862 13.376 16.9862 14.056C16.9862 14.424 16.9822 14.708 16.9742 14.908ZM14.6822 20.308C14.8982 20.308 15.0782 19.836 15.2222 18.892C15.3662 17.956 15.4582 16.788 15.4982 15.388C15.1542 16.188 14.8822 16.952 14.6822 17.68C14.4822 18.408 14.3822 19.02 14.3822 19.516C14.3822 19.772 14.4142 19.968 14.4782 20.104C14.5342 20.24 14.6022 20.308 14.6822 20.308ZM25.2955 10.408C25.4795 10.408 25.6075 10.432 25.6795 10.48C25.7515 10.528 25.7875 10.608 25.7875 10.72C25.7875 10.912 25.6835 11.596 25.4755 12.772C25.2915 13.9 25.1835 14.568 25.1515 14.776C24.8555 16.832 24.4475 18.46 23.9275 19.66C23.4075 20.86 22.7155 21.46 21.8515 21.46C21.4435 21.46 21.1115 21.332 20.8555 21.076C20.5995 20.828 20.4715 20.5 20.4715 20.092C20.4715 19.716 20.5555 19.332 20.7235 18.94C20.8995 18.548 21.2195 18.096 21.6835 17.584C22.1555 17.08 22.8195 16.5 23.6755 15.844L23.7115 15.568C23.7675 15.272 23.8315 14.848 23.9035 14.296C23.7435 14.872 23.5195 15.312 23.2315 15.616C22.9435 15.912 22.6395 16.06 22.3195 16.06C21.9595 16.06 21.6635 15.896 21.4315 15.568C21.2075 15.232 21.0955 14.816 21.0955 14.32C21.0955 13.72 21.1355 13.172 21.2155 12.676C21.2955 12.172 21.4275 11.64 21.6115 11.08C21.6915 10.84 21.8035 10.668 21.9475 10.564C22.0915 10.46 22.3195 10.408 22.6315 10.408C22.8075 10.408 22.9275 10.436 22.9915 10.492C23.0635 10.548 23.0995 10.632 23.0995 10.744C23.0995 10.808 23.0555 11.024 22.9675 11.392C22.8875 11.688 22.8235 11.956 22.7755 12.196C22.7115 12.524 22.6555 12.84 22.6075 13.144C22.5595 13.44 22.5355 13.684 22.5355 13.876C22.5355 14.18 22.6195 14.332 22.7875 14.332C22.9075 14.332 23.0555 14.212 23.2315 13.972C23.4155 13.732 23.6075 13.368 23.8075 12.88C24.0155 12.392 24.2155 11.792 24.4075 11.08C24.4715 10.84 24.5675 10.668 24.6955 10.564C24.8315 10.46 25.0315 10.408 25.2955 10.408ZM21.9835 20.296C22.1835 20.296 22.4075 20.064 22.6555 19.6C22.9035 19.136 23.1515 18.364 23.3995 17.284C22.7835 17.804 22.3355 18.276 22.0555 18.7C21.7835 19.132 21.6475 19.508 21.6475 19.828C21.6475 19.964 21.6715 20.076 21.7195 20.164C21.7755 20.252 21.8635 20.296 21.9835 20.296Z" fill="#940002"/>
<path d="M5.124 13.324C5.228 13.324 5.308 13.372 5.364 13.468C5.428 13.564 5.46 13.696 5.46 13.864C5.46 14.184 5.384 14.432 5.232 14.608C4.888 15.032 4.512 15.38 4.104 15.652C3.704 15.924 3.248 16.06 2.736 16.06C2.032 16.06 1.508 15.74 1.164 15.1C0.828 14.46 0.66 13.632 0.66 12.616C0.66 11.64 0.784 10.528 1.032 9.28C1.288 8.032 1.66 6.96 2.148 6.064C2.644 5.168 3.232 4.72 3.912 4.72C4.296 4.72 4.596 4.9 4.812 5.26C5.036 5.612 5.148 6.12 5.148 6.784C5.148 7.736 4.884 8.84 4.356 10.096C3.828 11.352 3.112 12.596 2.208 13.828C2.264 14.156 2.356 14.392 2.484 14.536C2.612 14.672 2.78 14.74 2.988 14.74C3.316 14.74 3.604 14.648 3.852 14.464C4.1 14.272 4.416 13.948 4.8 13.492C4.896 13.38 5.004 13.324 5.124 13.324ZM3.648 5.908C3.464 5.908 3.256 6.24 3.024 6.904C2.792 7.568 2.588 8.392 2.412 9.376C2.236 10.36 2.14 11.304 2.124 12.208C2.692 11.272 3.144 10.336 3.48 9.4C3.816 8.456 3.984 7.596 3.984 6.82C3.984 6.212 3.872 5.908 3.648 5.908Z" fill="url(#pattern0_4_2)"/>
<path d="M10.6101 12.316C10.7141 12.316 10.7941 12.368 10.8501 12.472C10.9061 12.576 10.9341 12.708 10.9341 12.868C10.9341 13.252 10.8181 13.48 10.5861 13.552C10.1061 13.72 9.57806 13.816 9.00206 13.84C8.85006 14.512 8.55006 15.052 8.10206 15.46C7.65406 15.86 7.14606 16.06 6.57806 16.06C6.09806 16.06 5.68606 15.944 5.34206 15.712C5.00606 15.48 4.75006 15.172 4.57406 14.788C4.39806 14.404 4.31006 13.988 4.31006 13.54C4.31006 12.932 4.42606 12.392 4.65806 11.92C4.89006 11.44 5.21006 11.068 5.61806 10.804C6.02606 10.532 6.47806 10.396 6.97406 10.396C7.58206 10.396 8.07006 10.608 8.43806 11.032C8.81406 11.448 9.03406 11.964 9.09806 12.58C9.47406 12.556 9.92206 12.476 10.4421 12.34C10.5061 12.324 10.5621 12.316 10.6101 12.316ZM6.67406 14.788C6.93006 14.788 7.15006 14.684 7.33406 14.476C7.52606 14.268 7.65406 13.968 7.71806 13.576C7.47006 13.408 7.27806 13.188 7.14206 12.916C7.01406 12.644 6.95006 12.356 6.95006 12.052C6.95006 11.924 6.96206 11.796 6.98606 11.668H6.92606C6.60606 11.668 6.33806 11.824 6.12206 12.136C5.91406 12.44 5.81006 12.872 5.81006 13.432C5.81006 13.872 5.89406 14.208 6.06206 14.44C6.23806 14.672 6.44206 14.788 6.67406 14.788Z" fill="url(#pattern1_4_2)"/>
<path d="M16.0241 12.316C16.1281 12.316 16.2081 12.368 16.2641 12.472C16.3201 12.576 16.3481 12.708 16.3481 12.868C16.3481 13.252 16.2321 13.48 16.0001 13.552C15.5201 13.72 14.9921 13.816 14.4161 13.84C14.2641 14.512 13.9641 15.052 13.5161 15.46C13.0681 15.86 12.5601 16.06 11.9921 16.06C11.5121 16.06 11.1001 15.944 10.7561 15.712C10.4201 15.48 10.1641 15.172 9.98812 14.788C9.81213 14.404 9.72412 13.988 9.72412 13.54C9.72412 12.932 9.84012 12.392 10.0721 11.92C10.3041 11.44 10.6241 11.068 11.0321 10.804C11.4401 10.532 11.8921 10.396 12.3881 10.396C12.9961 10.396 13.4841 10.608 13.8521 11.032C14.2281 11.448 14.4481 11.964 14.5121 12.58C14.8881 12.556 15.3361 12.476 15.8561 12.34C15.9201 12.324 15.9761 12.316 16.0241 12.316ZM12.0881 14.788C12.3441 14.788 12.5641 14.684 12.7481 14.476C12.9401 14.268 13.0681 13.968 13.1321 13.576C12.8841 13.408 12.6921 13.188 12.5561 12.916C12.4281 12.644 12.3641 12.356 12.3641 12.052C12.3641 11.924 12.3761 11.796 12.4001 11.668H12.3401C12.0201 11.668 11.7521 11.824 11.5361 12.136C11.3281 12.44 11.2241 12.872 11.2241 13.432C11.2241 13.872 11.3081 14.208 11.4761 14.44C11.6521 14.672 11.8561 14.788 12.0881 14.788Z" fill="url(#pattern2_4_2)"/>
<path d="M21.7262 13.324C21.8302 13.324 21.9102 13.372 21.9662 13.468C22.0302 13.564 22.0622 13.696 22.0622 13.864C22.0622 14.184 21.9862 14.432 21.8342 14.608C21.4902 15.032 21.1182 15.38 20.7182 15.652C20.3262 15.924 19.8782 16.06 19.3742 16.06C18.9502 16.06 18.6062 15.908 18.3422 15.604C17.8862 15.9 17.4102 16.052 16.9142 16.06C16.8102 17.604 16.5742 18.892 16.2062 19.924C15.8382 20.964 15.2982 21.484 14.5862 21.484C14.1542 21.484 13.8342 21.328 13.6262 21.016C13.4182 20.704 13.3142 20.272 13.3142 19.72C13.3142 18.936 13.4942 18.02 13.8542 16.972C14.2142 15.932 14.7702 14.784 15.5222 13.528C15.5222 12.36 15.5142 11.548 15.4982 11.092C15.4902 10.86 15.5822 10.676 15.7742 10.54C15.9662 10.404 16.2062 10.336 16.4942 10.336C16.6622 10.336 16.7822 10.372 16.8542 10.444C16.9342 10.508 16.9782 10.64 16.9862 10.84C16.9862 11.04 16.9902 11.188 16.9982 11.284C17.2542 10.964 17.5062 10.736 17.7542 10.6C18.0022 10.456 18.2662 10.384 18.5462 10.384C18.9942 10.384 19.3582 10.564 19.6382 10.924C19.9262 11.284 20.0702 11.756 20.0702 12.34C20.0702 12.764 20.0022 13.176 19.8662 13.576C19.7302 13.976 19.5422 14.34 19.3022 14.668C19.4702 14.716 19.6102 14.74 19.7222 14.74C19.9862 14.74 20.2382 14.644 20.4782 14.452C20.7182 14.26 21.0262 13.94 21.4022 13.492C21.4982 13.38 21.6062 13.324 21.7262 13.324ZM16.9742 14.908C17.2622 14.844 17.5262 14.688 17.7662 14.44C18.0142 14.184 18.2102 13.872 18.3542 13.504C18.4982 13.128 18.5702 12.736 18.5702 12.328C18.5702 12.088 18.5222 11.908 18.4262 11.788C18.3302 11.66 18.2022 11.596 18.0422 11.596C17.7542 11.596 17.4062 11.9 16.9982 12.508C16.9902 12.86 16.9862 13.376 16.9862 14.056C16.9862 14.424 16.9822 14.708 16.9742 14.908ZM14.6822 20.308C14.8982 20.308 15.0782 19.836 15.2222 18.892C15.3662 17.956 15.4582 16.788 15.4982 15.388C15.1542 16.188 14.8822 16.952 14.6822 17.68C14.4822 18.408 14.3822 19.02 14.3822 19.516C14.3822 19.772 14.4142 19.968 14.4782 20.104C14.5342 20.24 14.6022 20.308 14.6822 20.308Z" fill="url(#pattern3_4_2)"/>
<path d="M25.2955 10.408C25.4795 10.408 25.6075 10.432 25.6795 10.48C25.7515 10.528 25.7875 10.608 25.7875 10.72C25.7875 10.912 25.6835 11.596 25.4755 12.772C25.2915 13.9 25.1835 14.568 25.1515 14.776C24.8555 16.832 24.4475 18.46 23.9275 19.66C23.4075 20.86 22.7155 21.46 21.8515 21.46C21.4435 21.46 21.1115 21.332 20.8555 21.076C20.5995 20.828 20.4715 20.5 20.4715 20.092C20.4715 19.716 20.5555 19.332 20.7235 18.94C20.8995 18.548 21.2195 18.096 21.6835 17.584C22.1555 17.08 22.8195 16.5 23.6755 15.844L23.7115 15.568C23.7675 15.272 23.8315 14.848 23.9035 14.296C23.7435 14.872 23.5195 15.312 23.2315 15.616C22.9435 15.912 22.6395 16.06 22.3195 16.06C21.9595 16.06 21.6635 15.896 21.4315 15.568C21.2075 15.232 21.0955 14.816 21.0955 14.32C21.0955 13.72 21.1355 13.172 21.2155 12.676C21.2955 12.172 21.4275 11.64 21.6115 11.08C21.6915 10.84 21.8035 10.668 21.9475 10.564C22.0915 10.46 22.3195 10.408 22.6315 10.408C22.8075 10.408 22.9275 10.436 22.9915 10.492C23.0635 10.548 23.0995 10.632 23.0995 10.744C23.0995 10.808 23.0555 11.024 22.9675 11.392C22.8875 11.688 22.8235 11.956 22.7755 12.196C22.7115 12.524 22.6555 12.84 22.6075 13.144C22.5595 13.44 22.5355 13.684 22.5355 13.876C22.5355 14.18 22.6195 14.332 22.7875 14.332C22.9075 14.332 23.0555 14.212 23.2315 13.972C23.4155 13.732 23.6075 13.368 23.8075 12.88C24.0155 12.392 24.2155 11.792 24.4075 11.08C24.4715 10.84 24.5675 10.668 24.6955 10.564C24.8315 10.46 25.0315 10.408 25.2955 10.408ZM21.9835 20.296C22.1835 20.296 22.4075 20.064 22.6555 19.6C22.9035 19.136 23.1515 18.364 23.3995 17.284C22.7835 17.804 22.3355 18.276 22.0555 18.7C21.7835 19.132 21.6475 19.508 21.6475 19.828C21.6475 19.964 21.6715 20.076 21.7195 20.164C21.7755 20.252 21.8635 20.296 21.9835 20.296Z" fill="url(#pattern4_4_2)"/>
<path d="M4.464 13.604C4.568 13.604 4.648 13.652 4.704 13.748C4.768 13.844 4.8 13.976 4.8 14.144C4.8 14.464 4.724 14.712 4.572 14.888C4.228 15.312 3.852 15.66 3.444 15.932C3.044 16.204 2.588 16.34 2.076 16.34C1.372 16.34 0.848 16.02 0.504 15.38C0.168 14.74 0 13.912 0 12.896C0 11.92 0.124 10.808 0.372 9.56C0.628 8.312 1 7.24 1.488 6.344C1.984 5.448 2.572 5 3.252 5C3.636 5 3.936 5.18 4.152 5.54C4.376 5.892 4.488 6.4 4.488 7.064C4.488 8.016 4.224 9.12 3.696 10.376C3.168 11.632 2.452 12.876 1.548 14.108C1.604 14.436 1.696 14.672 1.824 14.816C1.952 14.952 2.12 15.02 2.328 15.02C2.656 15.02 2.944 14.928 3.192 14.744C3.44 14.552 3.756 14.228 4.14 13.772C4.236 13.66 4.344 13.604 4.464 13.604ZM2.988 6.188C2.804 6.188 2.596 6.52 2.364 7.184C2.132 7.848 1.928 8.672 1.752 9.656C1.576 10.64 1.48 11.584 1.464 12.488C2.032 11.552 2.484 10.616 2.82 9.68C3.156 8.736 3.324 7.876 3.324 7.1C3.324 6.492 3.212 6.188 2.988 6.188Z" fill="url(#pattern5_4_2)"/>
<path d="M9.95006 12.596C10.0541 12.596 10.1341 12.648 10.1901 12.752C10.2461 12.856 10.2741 12.988 10.2741 13.148C10.2741 13.532 10.1581 13.76 9.92606 13.832C9.44606 14 8.91806 14.096 8.34206 14.12C8.19006 14.792 7.89006 15.332 7.44206 15.74C6.99406 16.14 6.48606 16.34 5.91806 16.34C5.43806 16.34 5.02606 16.224 4.68206 15.992C4.34606 15.76 4.09006 15.452 3.91406 15.068C3.73806 14.684 3.65006 14.268 3.65006 13.82C3.65006 13.212 3.76606 12.672 3.99806 12.2C4.23006 11.72 4.55006 11.348 4.95806 11.084C5.36606 10.812 5.81806 10.676 6.31406 10.676C6.92206 10.676 7.41006 10.888 7.77806 11.312C8.15406 11.728 8.37406 12.244 8.43806 12.86C8.81406 12.836 9.26206 12.756 9.78206 12.62C9.84606 12.604 9.90206 12.596 9.95006 12.596ZM6.01406 15.068C6.27006 15.068 6.49006 14.964 6.67406 14.756C6.86606 14.548 6.99406 14.248 7.05806 13.856C6.81006 13.688 6.61806 13.468 6.48206 13.196C6.35406 12.924 6.29006 12.636 6.29006 12.332C6.29006 12.204 6.30206 12.076 6.32606 11.948H6.26606C5.94606 11.948 5.67806 12.104 5.46206 12.416C5.25406 12.72 5.15006 13.152 5.15006 13.712C5.15006 14.152 5.23406 14.488 5.40206 14.72C5.57806 14.952 5.78206 15.068 6.01406 15.068Z" fill="url(#pattern6_4_2)"/>
<path d="M15.3641 12.596C15.4681 12.596 15.5481 12.648 15.6041 12.752C15.6601 12.856 15.6881 12.988 15.6881 13.148C15.6881 13.532 15.5721 13.76 15.3401 13.832C14.8601 14 14.3321 14.096 13.7561 14.12C13.6041 14.792 13.3041 15.332 12.8561 15.74C12.4081 16.14 11.9001 16.34 11.3321 16.34C10.8521 16.34 10.4401 16.224 10.0961 15.992C9.76012 15.76 9.50412 15.452 9.32812 15.068C9.15213 14.684 9.06413 14.268 9.06413 13.82C9.06413 13.212 9.18012 12.672 9.41212 12.2C9.64412 11.72 9.96412 11.348 10.3721 11.084C10.7801 10.812 11.2321 10.676 11.7281 10.676C12.3361 10.676 12.8241 10.888 13.1921 11.312C13.5681 11.728 13.7881 12.244 13.8521 12.86C14.2281 12.836 14.6761 12.756 15.1961 12.62C15.2601 12.604 15.3161 12.596 15.3641 12.596ZM11.4281 15.068C11.6841 15.068 11.9041 14.964 12.0881 14.756C12.2801 14.548 12.4081 14.248 12.4721 13.856C12.2241 13.688 12.0321 13.468 11.8961 13.196C11.7681 12.924 11.7041 12.636 11.7041 12.332C11.7041 12.204 11.7161 12.076 11.7401 11.948H11.6801C11.3601 11.948 11.0921 12.104 10.8761 12.416C10.6681 12.72 10.5641 13.152 10.5641 13.712C10.5641 14.152 10.6481 14.488 10.8161 14.72C10.9921 14.952 11.1961 15.068 11.4281 15.068Z" fill="url(#pattern7_4_2)"/>
<path d="M21.0662 13.604C21.1702 13.604 21.2502 13.652 21.3062 13.748C21.3702 13.844 21.4022 13.976 21.4022 14.144C21.4022 14.464 21.3262 14.712 21.1742 14.888C20.8302 15.312 20.4582 15.66 20.0582 15.932C19.6662 16.204 19.2182 16.34 18.7142 16.34C18.2902 16.34 17.9462 16.188 17.6822 15.884C17.2262 16.18 16.7502 16.332 16.2542 16.34C16.1502 17.884 15.9142 19.172 15.5462 20.204C15.1782 21.244 14.6382 21.764 13.9262 21.764C13.4942 21.764 13.1742 21.608 12.9662 21.296C12.7582 20.984 12.6542 20.552 12.6542 20C12.6542 19.216 12.8342 18.3 13.1942 17.252C13.5542 16.212 14.1102 15.064 14.8622 13.808C14.8622 12.64 14.8542 11.828 14.8382 11.372C14.8302 11.14 14.9222 10.956 15.1142 10.82C15.3062 10.684 15.5462 10.616 15.8342 10.616C16.0022 10.616 16.1222 10.652 16.1942 10.724C16.2742 10.788 16.3182 10.92 16.3262 11.12C16.3262 11.32 16.3302 11.468 16.3382 11.564C16.5942 11.244 16.8462 11.016 17.0942 10.88C17.3422 10.736 17.6062 10.664 17.8862 10.664C18.3342 10.664 18.6982 10.844 18.9782 11.204C19.2662 11.564 19.4102 12.036 19.4102 12.62C19.4102 13.044 19.3422 13.456 19.2062 13.856C19.0702 14.256 18.8822 14.62 18.6422 14.948C18.8102 14.996 18.9502 15.02 19.0622 15.02C19.3262 15.02 19.5782 14.924 19.8182 14.732C20.0582 14.54 20.3662 14.22 20.7422 13.772C20.8382 13.66 20.9462 13.604 21.0662 13.604ZM16.3142 15.188C16.6022 15.124 16.8662 14.968 17.1062 14.72C17.3542 14.464 17.5502 14.152 17.6942 13.784C17.8382 13.408 17.9102 13.016 17.9102 12.608C17.9102 12.368 17.8622 12.188 17.7662 12.068C17.6702 11.94 17.5422 11.876 17.3822 11.876C17.0942 11.876 16.7462 12.18 16.3382 12.788C16.3302 13.14 16.3262 13.656 16.3262 14.336C16.3262 14.704 16.3222 14.988 16.3142 15.188ZM14.0222 20.588C14.2382 20.588 14.4182 20.116 14.5622 19.172C14.7062 18.236 14.7982 17.068 14.8382 15.668C14.4942 16.468 14.2222 17.232 14.0222 17.96C13.8222 18.688 13.7222 19.3 13.7222 19.796C13.7222 20.052 13.7542 20.248 13.8182 20.384C13.8742 20.52 13.9422 20.588 14.0222 20.588Z" fill="url(#pattern8_4_2)"/>
<path d="M24.6355 10.688C24.8195 10.688 24.9475 10.712 25.0195 10.76C25.0915 10.808 25.1275 10.888 25.1275 11C25.1275 11.192 25.0235 11.876 24.8155 13.052C24.6315 14.18 24.5235 14.848 24.4915 15.056C24.1955 17.112 23.7875 18.74 23.2675 19.94C22.7475 21.14 22.0555 21.74 21.1915 21.74C20.7835 21.74 20.4515 21.612 20.1955 21.356C19.9395 21.108 19.8115 20.78 19.8115 20.372C19.8115 19.996 19.8955 19.612 20.0635 19.22C20.2395 18.828 20.5595 18.376 21.0235 17.864C21.4955 17.36 22.1595 16.78 23.0155 16.124L23.0515 15.848C23.1075 15.552 23.1715 15.128 23.2435 14.576C23.0835 15.152 22.8595 15.592 22.5715 15.896C22.2835 16.192 21.9795 16.34 21.6595 16.34C21.2995 16.34 21.0035 16.176 20.7715 15.848C20.5475 15.512 20.4355 15.096 20.4355 14.6C20.4355 14 20.4755 13.452 20.5555 12.956C20.6355 12.452 20.7675 11.92 20.9515 11.36C21.0315 11.12 21.1435 10.948 21.2875 10.844C21.4315 10.74 21.6595 10.688 21.9715 10.688C22.1475 10.688 22.2675 10.716 22.3315 10.772C22.4035 10.828 22.4395 10.912 22.4395 11.024C22.4395 11.088 22.3955 11.304 22.3075 11.672C22.2275 11.968 22.1635 12.236 22.1155 12.476C22.0515 12.804 21.9955 13.12 21.9475 13.424C21.8995 13.72 21.8755 13.964 21.8755 14.156C21.8755 14.46 21.9595 14.612 22.1275 14.612C22.2475 14.612 22.3955 14.492 22.5715 14.252C22.7555 14.012 22.9475 13.648 23.1475 13.16C23.3555 12.672 23.5555 12.072 23.7475 11.36C23.8115 11.12 23.9075 10.948 24.0355 10.844C24.1715 10.74 24.3715 10.688 24.6355 10.688ZM21.3235 20.576C21.5235 20.576 21.7475 20.344 21.9955 19.88C22.2435 19.416 22.4915 18.644 22.7395 17.564C22.1235 18.084 21.6755 18.556 21.3955 18.98C21.1235 19.412 20.9875 19.788 20.9875 20.108C20.9875 20.244 21.0115 20.356 21.0595 20.444C21.1155 20.532 21.2035 20.576 21.3235 20.576Z" fill="url(#pattern9_4_2)"/>
<defs>
<pattern id="pattern0_4_2" patternUnits="userSpaceOnUse" patternTransform="matrix(0.332446 0 0 0.598759 0.678821 4.7409)" preserveAspectRatio="none" viewBox="0.209119 0.232224 3.69384 6.65288" width="1" height="1">
<use xlink:href="#pattern0_4_2_inner" transform="translate(-5.54077 -3.32644)"/>
<use xlink:href="#pattern0_4_2_inner" transform="translate(-1.84692 -3.32644)"/>
<use xlink:href="#pattern0_4_2_inner" transform="translate(1.84692 -3.32644)"/>
<use xlink:href="#pattern0_4_2_inner" transform="translate(-7.38769 0)"/>
<use xlink:href="#pattern0_4_2_inner" transform="translate(-3.69384 0)"/>
<g id="pattern0_4_2_inner">
<mask id="path-3-outside-1_4_2" maskUnits="userSpaceOnUse" x="-0.021635" y="0" width="4.38466" height="4.08902" fill="black">
<rect fill="white" x="-0.021635" width="4.38466" height="4.08902"/>
</mask>
<path d="M4.15391 0.510878C4.07026 0.417991 3.98661 0.325104 3.90297 0.232217C3.82746 0.272177 3.75265 0.312911 3.67854 0.354418C3.01154 0.727987 2.401 1.16425 1.84692 1.66322C1.29285 2.16219 0.795231 2.72385 0.35408 3.34822C0.305062 3.41759 0.256744 3.48774 0.20912 3.55866C0.292768 3.65155 0.376416 3.74443 0.460065 3.83732C0.535571 3.79736 0.610378 3.75663 0.68449 3.71512C1.35149 3.34155 1.96203 2.90528 2.51611 2.40632C3.07018 1.90735 3.5678 1.34569 4.00895 0.721322C4.05797 0.651948 4.10629 0.5818 4.15391 0.510878Z" fill="#BE6156" mask="url(#path-3-outside-1_4_2)"/>
</g>
<use xlink:href="#pattern0_4_2_inner" transform="translate(-5.54077 3.32644)"/>
<use xlink:href="#pattern0_4_2_inner" transform="translate(-1.84692 3.32644)"/>
<use xlink:href="#pattern0_4_2_inner" transform="translate(1.84692 3.32644)"/>
</pattern><pattern id="pattern1_4_2" patternUnits="userSpaceOnUse" patternTransform="matrix(0.332446 0 0 0.598759 0.678821 4.7409)" preserveAspectRatio="none" viewBox="0.209119 0.232224 3.69384 6.65288" width="1" height="1">
<use xlink:href="#pattern1_4_2_inner" transform="translate(-5.54077 -3.32644)"/>
<use xlink:href="#pattern1_4_2_inner" transform="translate(-1.84692 -3.32644)"/>
<use xlink:href="#pattern1_4_2_inner" transform="translate(1.84692 -3.32644)"/>
<use xlink:href="#pattern1_4_2_inner" transform="translate(-7.38769 0)"/>
<use xlink:href="#pattern1_4_2_inner" transform="translate(-3.69384 0)"/>
<g id="pattern1_4_2_inner">
<mask id="path-5-outside-2_4_2" maskUnits="userSpaceOnUse" x="-0.021635" y="0" width="4.38466" height="4.08902" fill="black">
<rect fill="white" x="-0.021635" width="4.38466" height="4.08902"/>
</mask>
<path d="M4.15391 0.510878C4.07026 0.417991 3.98661 0.325104 3.90297 0.232217C3.82746 0.272177 3.75265 0.312911 3.67854 0.354418C3.01154 0.727987 2.401 1.16425 1.84692 1.66322C1.29285 2.16219 0.795231 2.72385 0.35408 3.34822C0.305062 3.41759 0.256744 3.48774 0.20912 3.55866C0.292768 3.65155 0.376416 3.74443 0.460065 3.83732C0.535571 3.79736 0.610378 3.75663 0.68449 3.71512C1.35149 3.34155 1.96203 2.90528 2.51611 2.40632C3.07018 1.90735 3.5678 1.34569 4.00895 0.721322C4.05797 0.651948 4.10629 0.5818 4.15391 0.510878Z" fill="#BE6156" mask="url(#path-5-outside-2_4_2)"/>
</g>
<use xlink:href="#pattern1_4_2_inner" transform="translate(-5.54077 3.32644)"/>
<use xlink:href="#pattern1_4_2_inner" transform="translate(-1.84692 3.32644)"/>
<use xlink:href="#pattern1_4_2_inner" transform="translate(1.84692 3.32644)"/>
</pattern><pattern id="pattern2_4_2" patternUnits="userSpaceOnUse" patternTransform="matrix(0.332446 0 0 0.598759 0.678821 4.7409)" preserveAspectRatio="none" viewBox="0.209119 0.232224 3.69384 6.65288" width="1" height="1">
<use xlink:href="#pattern2_4_2_inner" transform="translate(-5.54077 -3.32644)"/>
<use xlink:href="#pattern2_4_2_inner" transform="translate(-1.84692 -3.32644)"/>
<use xlink:href="#pattern2_4_2_inner" transform="translate(1.84692 -3.32644)"/>
<use xlink:href="#pattern2_4_2_inner" transform="translate(-7.38769 0)"/>
<use xlink:href="#pattern2_4_2_inner" transform="translate(-3.69384 0)"/>
<g id="pattern2_4_2_inner">
<mask id="path-7-outside-3_4_2" maskUnits="userSpaceOnUse" x="-0.021635" y="0" width="4.38466" height="4.08902" fill="black">
<rect fill="white" x="-0.021635" width="4.38466" height="4.08902"/>
</mask>
<path d="M4.15391 0.510878C4.07026 0.417991 3.98661 0.325104 3.90297 0.232217C3.82746 0.272177 3.75265 0.312911 3.67854 0.354418C3.01154 0.727987 2.401 1.16425 1.84692 1.66322C1.29285 2.16219 0.795231 2.72385 0.35408 3.34822C0.305062 3.41759 0.256744 3.48774 0.20912 3.55866C0.292768 3.65155 0.376416 3.74443 0.460065 3.83732C0.535571 3.79736 0.610378 3.75663 0.68449 3.71512C1.35149 3.34155 1.96203 2.90528 2.51611 2.40632C3.07018 1.90735 3.5678 1.34569 4.00895 0.721322C4.05797 0.651948 4.10629 0.5818 4.15391 0.510878Z" fill="#BE6156" mask="url(#path-7-outside-3_4_2)"/>
</g>
<use xlink:href="#pattern2_4_2_inner" transform="translate(-5.54077 3.32644)"/>
<use xlink:href="#pattern2_4_2_inner" transform="translate(-1.84692 3.32644)"/>
<use xlink:href="#pattern2_4_2_inner" transform="translate(1.84692 3.32644)"/>
</pattern><pattern id="pattern3_4_2" patternUnits="userSpaceOnUse" patternTransform="matrix(0.332446 0 0 0.598759 0.678821 4.7409)" preserveAspectRatio="none" viewBox="0.209119 0.232224 3.69384 6.65288" width="1" height="1">
<use xlink:href="#pattern3_4_2_inner" transform="translate(-5.54077 -3.32644)"/>
<use xlink:href="#pattern3_4_2_inner" transform="translate(-1.84692 -3.32644)"/>
<use xlink:href="#pattern3_4_2_inner" transform="translate(1.84692 -3.32644)"/>
<use xlink:href="#pattern3_4_2_inner" transform="translate(-7.38769 0)"/>
<use xlink:href="#pattern3_4_2_inner" transform="translate(-3.69384 0)"/>
<g id="pattern3_4_2_inner">
<mask id="path-9-outside-4_4_2" maskUnits="userSpaceOnUse" x="-0.021635" y="0" width="4.38466" height="4.08902" fill="black">
<rect fill="white" x="-0.021635" width="4.38466" height="4.08902"/>
</mask>
<path d="M4.15391 0.510878C4.07026 0.417991 3.98661 0.325104 3.90297 0.232217C3.82746 0.272177 3.75265 0.312911 3.67854 0.354418C3.01154 0.727987 2.401 1.16425 1.84692 1.66322C1.29285 2.16219 0.795231 2.72385 0.35408 3.34822C0.305062 3.41759 0.256744 3.48774 0.20912 3.55866C0.292768 3.65155 0.376416 3.74443 0.460065 3.83732C0.535571 3.79736 0.610378 3.75663 0.68449 3.71512C1.35149 3.34155 1.96203 2.90528 2.51611 2.40632C3.07018 1.90735 3.5678 1.34569 4.00895 0.721322C4.05797 0.651948 4.10629 0.5818 4.15391 0.510878Z" fill="#BE6156" mask="url(#path-9-outside-4_4_2)"/>
</g>
<use xlink:href="#pattern3_4_2_inner" transform="translate(-5.54077 3.32644)"/>
<use xlink:href="#pattern3_4_2_inner" transform="translate(-1.84692 3.32644)"/>
<use xlink:href="#pattern3_4_2_inner" transform="translate(1.84692 3.32644)"/>
</pattern><pattern id="pattern4_4_2" patternUnits="userSpaceOnUse" patternTransform="matrix(0.332446 0 0 0.598759 0.678821 4.7409)" preserveAspectRatio="none" viewBox="0.209119 0.232224 3.69384 6.65288" width="1" height="1">
<use xlink:href="#pattern4_4_2_inner" transform="translate(-5.54077 -3.32644)"/>
<use xlink:href="#pattern4_4_2_inner" transform="translate(-1.84692 -3.32644)"/>
<use xlink:href="#pattern4_4_2_inner" transform="translate(1.84692 -3.32644)"/>
<use xlink:href="#pattern4_4_2_inner" transform="translate(-7.38769 0)"/>
<use xlink:href="#pattern4_4_2_inner" transform="translate(-3.69384 0)"/>
<g id="pattern4_4_2_inner">
<mask id="path-11-outside-5_4_2" maskUnits="userSpaceOnUse" x="-0.021635" y="0" width="4.38466" height="4.08902" fill="black">
<rect fill="white" x="-0.021635" width="4.38466" height="4.08902"/>
</mask>
<path d="M4.15391 0.510878C4.07026 0.417991 3.98661 0.325104 3.90297 0.232217C3.82746 0.272177 3.75265 0.312911 3.67854 0.354418C3.01154 0.727987 2.401 1.16425 1.84692 1.66322C1.29285 2.16219 0.795231 2.72385 0.35408 3.34822C0.305062 3.41759 0.256744 3.48774 0.20912 3.55866C0.292768 3.65155 0.376416 3.74443 0.460065 3.83732C0.535571 3.79736 0.610378 3.75663 0.68449 3.71512C1.35149 3.34155 1.96203 2.90528 2.51611 2.40632C3.07018 1.90735 3.5678 1.34569 4.00895 0.721322C4.05797 0.651948 4.10629 0.5818 4.15391 0.510878Z" fill="#BE6156" mask="url(#path-11-outside-5_4_2)"/>
</g>
<use xlink:href="#pattern4_4_2_inner" transform="translate(-5.54077 3.32644)"/>
<use xlink:href="#pattern4_4_2_inner" transform="translate(-1.84692 3.32644)"/>
<use xlink:href="#pattern4_4_2_inner" transform="translate(1.84692 3.32644)"/>
</pattern><pattern id="pattern5_4_2" patternUnits="userSpaceOnUse" patternTransform="matrix(0.31452 0 0 0.63632 -0.0440033 5.01977)" preserveAspectRatio="none" viewBox="-0.488925 0.219695 3.49467 7.07022" width="1" height="1">
<use xlink:href="#pattern5_4_2_inner" transform="translate(-5.242 -3.53511)"/>
<use xlink:href="#pattern5_4_2_inner" transform="translate(-1.74733 -3.53511)"/>
<use xlink:href="#pattern5_4_2_inner" transform="translate(1.74733 -3.53511)"/>
<use xlink:href="#pattern5_4_2_inner" transform="translate(-6.98934 0)"/>
<use xlink:href="#pattern5_4_2_inner" transform="translate(-3.49467 0)"/>
<g id="pattern5_4_2_inner">
<mask id="path-14-outside-6_4_2" maskUnits="userSpaceOnUse" x="-0.731631" y="-0.0207053" width="4.2263" height="4.25884" fill="black">
<rect fill="white" x="-0.731631" y="-0.0207053" width="4.2263" height="4.25884"/>
</mask>
<path d="M3.00574 4.01844C3.09464 3.93056 3.18353 3.84268 3.27243 3.75481C3.229 3.68124 3.18483 3.60841 3.13992 3.53631C2.73573 2.88741 2.27153 2.29782 1.74733 1.76755C1.22313 1.23729 0.638929 0.766339 -0.00527975 0.354709C-0.0768592 0.308972 -0.149177 0.263969 -0.222238 0.219696C-0.311134 0.307574 -0.400029 0.395453 -0.488924 0.483331C-0.445495 0.556897 -0.401327 0.629728 -0.356416 0.701829C0.0477747 1.35073 0.511971 1.94032 1.03617 2.47058C1.56037 3.00085 2.14458 3.4718 2.78878 3.88343C2.86036 3.92916 2.93268 3.97417 3.00574 4.01844Z" fill="#E5EEEF" mask="url(#path-14-outside-6_4_2)"/>
</g>
<use xlink:href="#pattern5_4_2_inner" transform="translate(-5.242 3.53511)"/>
<use xlink:href="#pattern5_4_2_inner" transform="translate(-1.74733 3.53511)"/>
<use xlink:href="#pattern5_4_2_inner" transform="translate(1.74733 3.53511)"/>
</pattern><pattern id="pattern6_4_2" patternUnits="userSpaceOnUse" patternTransform="matrix(0.31452 0 0 0.63632 -0.0440033 5.01977)" preserveAspectRatio="none" viewBox="-0.488925 0.219695 3.49467 7.07022" width="1" height="1">
<use xlink:href="#pattern6_4_2_inner" transform="translate(-5.242 -3.53511)"/>
<use xlink:href="#pattern6_4_2_inner" transform="translate(-1.74733 -3.53511)"/>
<use xlink:href="#pattern6_4_2_inner" transform="translate(1.74733 -3.53511)"/>
<use xlink:href="#pattern6_4_2_inner" transform="translate(-6.98934 0)"/>
<use xlink:href="#pattern6_4_2_inner" transform="translate(-3.49467 0)"/>
<g id="pattern6_4_2_inner">
<mask id="path-16-outside-7_4_2" maskUnits="userSpaceOnUse" x="-0.731631" y="-0.0207053" width="4.2263" height="4.25884" fill="black">
<rect fill="white" x="-0.731631" y="-0.0207053" width="4.2263" height="4.25884"/>
</mask>
<path d="M3.00574 4.01844C3.09464 3.93056 3.18353 3.84268 3.27243 3.75481C3.229 3.68124 3.18483 3.60841 3.13992 3.53631C2.73573 2.88741 2.27153 2.29782 1.74733 1.76755C1.22313 1.23729 0.638929 0.766339 -0.00527975 0.354709C-0.0768592 0.308972 -0.149177 0.263969 -0.222238 0.219696C-0.311134 0.307574 -0.400029 0.395453 -0.488924 0.483331C-0.445495 0.556897 -0.401327 0.629728 -0.356416 0.701829C0.0477747 1.35073 0.511971 1.94032 1.03617 2.47058C1.56037 3.00085 2.14458 3.4718 2.78878 3.88343C2.86036 3.92916 2.93268 3.97417 3.00574 4.01844Z" fill="#E5EEEF" mask="url(#path-16-outside-7_4_2)"/>
</g>
<use xlink:href="#pattern6_4_2_inner" transform="translate(-5.242 3.53511)"/>
<use xlink:href="#pattern6_4_2_inner" transform="translate(-1.74733 3.53511)"/>
<use xlink:href="#pattern6_4_2_inner" transform="translate(1.74733 3.53511)"/>
</pattern><pattern id="pattern7_4_2" patternUnits="userSpaceOnUse" patternTransform="matrix(0.31452 0 0 0.63632 -0.0440033 5.01977)" preserveAspectRatio="none" viewBox="-0.488925 0.219695 3.49467 7.07022" width="1" height="1">
<use xlink:href="#pattern7_4_2_inner" transform="translate(-5.242 -3.53511)"/>
<use xlink:href="#pattern7_4_2_inner" transform="translate(-1.74733 -3.53511)"/>
<use xlink:href="#pattern7_4_2_inner" transform="translate(1.74733 -3.53511)"/>
<use xlink:href="#pattern7_4_2_inner" transform="translate(-6.98934 0)"/>
<use xlink:href="#pattern7_4_2_inner" transform="translate(-3.49467 0)"/>
<g id="pattern7_4_2_inner">
<mask id="path-18-outside-8_4_2" maskUnits="userSpaceOnUse" x="-0.731631" y="-0.0207053" width="4.2263" height="4.25884" fill="black">
<rect fill="white" x="-0.731631" y="-0.0207053" width="4.2263" height="4.25884"/>
</mask>
<path d="M3.00574 4.01844C3.09464 3.93056 3.18353 3.84268 3.27243 3.75481C3.229 3.68124 3.18483 3.60841 3.13992 3.53631C2.73573 2.88741 2.27153 2.29782 1.74733 1.76755C1.22313 1.23729 0.638929 0.766339 -0.00527975 0.354709C-0.0768592 0.308972 -0.149177 0.263969 -0.222238 0.219696C-0.311134 0.307574 -0.400029 0.395453 -0.488924 0.483331C-0.445495 0.556897 -0.401327 0.629728 -0.356416 0.701829C0.0477747 1.35073 0.511971 1.94032 1.03617 2.47058C1.56037 3.00085 2.14458 3.4718 2.78878 3.88343C2.86036 3.92916 2.93268 3.97417 3.00574 4.01844Z" fill="#E5EEEF" mask="url(#path-18-outside-8_4_2)"/>
</g>
<use xlink:href="#pattern7_4_2_inner" transform="translate(-5.242 3.53511)"/>
<use xlink:href="#pattern7_4_2_inner" transform="translate(-1.74733 3.53511)"/>
<use xlink:href="#pattern7_4_2_inner" transform="translate(1.74733 3.53511)"/>
</pattern><pattern id="pattern8_4_2" patternUnits="userSpaceOnUse" patternTransform="matrix(0.31452 0 0 0.63632 -0.0440033 5.01977)" preserveAspectRatio="none" viewBox="-0.488925 0.219695 3.49467 7.07022" width="1" height="1">
<use xlink:href="#pattern8_4_2_inner" transform="translate(-5.242 -3.53511)"/>
<use xlink:href="#pattern8_4_2_inner" transform="translate(-1.74733 -3.53511)"/>
<use xlink:href="#pattern8_4_2_inner" transform="translate(1.74733 -3.53511)"/>
<use xlink:href="#pattern8_4_2_inner" transform="translate(-6.98934 0)"/>
<use xlink:href="#pattern8_4_2_inner" transform="translate(-3.49467 0)"/>
<g id="pattern8_4_2_inner">
<mask id="path-20-outside-9_4_2" maskUnits="userSpaceOnUse" x="-0.731631" y="-0.0207053" width="4.2263" height="4.25884" fill="black">
<rect fill="white" x="-0.731631" y="-0.0207053" width="4.2263" height="4.25884"/>
</mask>
<path d="M3.00574 4.01844C3.09464 3.93056 3.18353 3.84268 3.27243 3.75481C3.229 3.68124 3.18483 3.60841 3.13992 3.53631C2.73573 2.88741 2.27153 2.29782 1.74733 1.76755C1.22313 1.23729 0.638929 0.766339 -0.00527975 0.354709C-0.0768592 0.308972 -0.149177 0.263969 -0.222238 0.219696C-0.311134 0.307574 -0.400029 0.395453 -0.488924 0.483331C-0.445495 0.556897 -0.401327 0.629728 -0.356416 0.701829C0.0477747 1.35073 0.511971 1.94032 1.03617 2.47058C1.56037 3.00085 2.14458 3.4718 2.78878 3.88343C2.86036 3.92916 2.93268 3.97417 3.00574 4.01844Z" fill="#E5EEEF" mask="url(#path-20-outside-9_4_2)"/>
</g>
<use xlink:href="#pattern8_4_2_inner" transform="translate(-5.242 3.53511)"/>
<use xlink:href="#pattern8_4_2_inner" transform="translate(-1.74733 3.53511)"/>
<use xlink:href="#pattern8_4_2_inner" transform="translate(1.74733 3.53511)"/>
</pattern><pattern id="pattern9_4_2" patternUnits="userSpaceOnUse" patternTransform="matrix(0.31452 0 0 0.63632 -0.0440033 5.01977)" preserveAspectRatio="none" viewBox="-0.488925 0.219695 3.49467 7.07022" width="1" height="1">
<use xlink:href="#pattern9_4_2_inner" transform="translate(-5.242 -3.53511)"/>
<use xlink:href="#pattern9_4_2_inner" transform="translate(-1.74733 -3.53511)"/>
<use xlink:href="#pattern9_4_2_inner" transform="translate(1.74733 -3.53511)"/>
<use xlink:href="#pattern9_4_2_inner" transform="translate(-6.98934 0)"/>
<use xlink:href="#pattern9_4_2_inner" transform="translate(-3.49467 0)"/>
<g id="pattern9_4_2_inner">
<mask id="path-22-outside-10_4_2" maskUnits="userSpaceOnUse" x="-0.731631" y="-0.0207053" width="4.2263" height="4.25884" fill="black">
<rect fill="white" x="-0.731631" y="-0.0207053" width="4.2263" height="4.25884"/>
</mask>
<path d="M3.00574 4.01844C3.09464 3.93056 3.18353 3.84268 3.27243 3.75481C3.229 3.68124 3.18483 3.60841 3.13992 3.53631C2.73573 2.88741 2.27153 2.29782 1.74733 1.76755C1.22313 1.23729 0.638929 0.766339 -0.00527975 0.354709C-0.0768592 0.308972 -0.149177 0.263969 -0.222238 0.219696C-0.311134 0.307574 -0.400029 0.395453 -0.488924 0.483331C-0.445495 0.556897 -0.401327 0.629728 -0.356416 0.701829C0.0477747 1.35073 0.511971 1.94032 1.03617 2.47058C1.56037 3.00085 2.14458 3.4718 2.78878 3.88343C2.86036 3.92916 2.93268 3.97417 3.00574 4.01844Z" fill="#E5EEEF" mask="url(#path-22-outside-10_4_2)"/>
</g>
<use xlink:href="#pattern9_4_2_inner" transform="translate(-5.242 3.53511)"/>
<use xlink:href="#pattern9_4_2_inner" transform="translate(-1.74733 3.53511)"/>
<use xlink:href="#pattern9_4_2_inner" transform="translate(1.74733 3.53511)"/>
</pattern></defs>
</svg>
